<?xml version="1.0" encoding="utf-8"?>
<!-- Generator: Adobe Illustrator 19.2.0, SVG Export Plug-In . SVG Version: 6.00 Build 0)  -->
<svg version="1.1" id="Layer_1" xmlns="http://www.w3.org/2000/svg" xmlns:xlink="http://www.w3.org/1999/xlink" x="0px" y="0px"
	 viewBox="0 0 120 50" style="enable-background:new 0 0 120 50;" xml:space="preserve">
<style type="text/css">
	.st0{fill:#CCCCCC;}
</style>
<path class="st0" d="M26.7,0H3.3C1.5,0,0,1.5,0,3.3v23.3C0,28.5,1.5,30,3.3,30H15V18.3h-3.3v-4.1H15v-3.4c0-3.6,2-6.1,6.3-6.1l3,0V9
	h-2c-1.7,0-2.3,1.2-2.3,2.4v2.8h4.3l-0.9,4.1H20V30h6.7c1.8,0,3.3-1.5,3.3-3.3V3.3C30,1.5,28.5,0,26.7,0z"/>
<path class="st0" d="M86.7,0H63.3C61.5,0,60,1.5,60,3.3v23.3c0,1.8,1.5,3.3,3.3,3.3h23.3c1.8,0,3.3-1.5,3.3-3.3V3.3
	C90,1.5,88.5,0,86.7,0z M75,24.2c5.1,0,9.2-4.1,9.2-9.2c0-0.6-0.1-1.1-0.2-1.6h2.6v12c0,0.6-0.5,1.2-1.2,1.2h-21
	c-0.6,0-1.2-0.5-1.2-1.2v-12h2.6c-0.1,0.5-0.2,1.1-0.2,1.6C65.7,20.1,69.9,24.2,75,24.2z M69.2,15c0-3.2,2.6-5.8,5.8-5.8
	c3.2,0,5.8,2.6,5.8,5.8s-2.6,5.8-5.8,5.8C71.8,20.7,69.2,18.2,69.2,15z M85.5,8.3h-2.7c-0.6,0-1.2-0.5-1.2-1.2V4.5
	c0-0.6,0.5-1.2,1.2-1.2h2.7c0.6,0,1.2,0.5,1.2,1.2v2.7C86.7,7.8,86.2,8.3,85.5,8.3z"/>
<path class="st0" d="M56,0H34c-2.2,0-4,1.8-4,4v22c0,2.2,1.8,4,4,4h22c2.2,0,4-1.8,4-4V4C60,1.8,58.2,0,56,0z M52.3,11.9
	c0,0.2,0,0.3,0,0.5c0,5-3.8,10.7-10.7,10.7c-2.1,0-4.1-0.6-5.8-1.7c0.3,0,0.6,0.1,0.9,0.1c1.8,0,3.4-0.6,4.7-1.6
	c-1.7,0-3-1.1-3.5-2.6c0.2,0,0.5,0.1,0.7,0.1c0.3,0,0.7,0,1-0.1c-1.7-0.3-3-1.9-3-3.7c0,0,0,0,0,0c0.5,0.3,1.1,0.5,1.7,0.5
	c-1-0.7-1.7-1.8-1.7-3.1c0-0.7,0.2-1.3,0.5-1.9c1.9,2.3,4.6,3.8,7.8,3.9c-0.1-0.3-0.1-0.6-0.1-0.9c0-2.1,1.7-3.8,3.8-3.8
	c1.1,0,2.1,0.5,2.8,1.2c0.9-0.2,1.7-0.5,2.4-0.9c-0.3,0.9-0.9,1.6-1.7,2.1c0.8-0.1,1.5-0.3,2.2-0.6C53.7,10.7,53.1,11.4,52.3,11.9z"
	/>
<g>
	<path class="st0" d="M108.2,14.7l-4.5-2.1c-0.4-0.2-0.7,0-0.7,0.5V17c0,0.4,0.3,0.6,0.7,0.5l4.5-2.1
		C108.6,15.2,108.6,14.8,108.2,14.7z"/>
	<path class="st0" d="M116,0H94c-2.2,0-4,1.8-4,4v22c0,2.2,1.8,4,4,4h22c2.2,0,4-1.8,4-4V4C120,1.8,118.2,0,116,0z M105,22.7
		c-9.8,0-10-0.9-10-7.7s0.2-7.7,10-7.7s10,0.9,10,7.7S114.8,22.7,105,22.7z"/>
</g>
<path class="st0" d="M17.5,46.1l-3.8-3.8c0.6-0.9,0.9-2,0.9-3.2c0-3.4-3-6.4-6.4-6.4c-3.4,0-6.2,2.8-6.2,6.2c0,3.4,3,6.4,6.4,6.4
	c1.1,0,2.2-0.3,3.1-0.8l3.8,3.8c0.4,0.4,1,0.4,1.3,0l0.9-0.9C18.1,47,17.9,46.5,17.5,46.1z M4,39c0-2.4,1.9-4.3,4.3-4.3
	c2.4,0,4.5,2.1,4.5,4.5c0,2.4-1.9,4.3-4.3,4.3C6.1,43.4,4,41.3,4,39z"/>
</svg>
