<?xml version="1.0" encoding="utf-8"?>
<!-- Generator: Adobe Illustrator 19.2.0, SVG Export Plug-In . SVG Version: 6.00 Build 0)  -->
<svg version="1.1" id="Layer_1" xmlns="http://www.w3.org/2000/svg" xmlns:xlink="http://www.w3.org/1999/xlink" x="0px" y="0px"
	 viewBox="0 0 240 100" style="enable-background:new 0 0 240 100;" xml:space="preserve">
<style type="text/css">
	.st0{fill:#EEEEEE;}
	.st1{fill:#231F20;}
</style>
<rect class="st0" width="240" height="100"/>
<g>
	<path class="st1" d="M50.9,27.2h5.2v36.1h17.3v4.4H50.9V27.2z"/>
	<path class="st1" d="M111.4,47c0,13.9-8.5,21.3-18.8,21.3c-10.7,0-18.2-8.3-18.2-20.5c0-12.8,8-21.2,18.8-21.2
		C104.2,26.5,111.4,35,111.4,47z M80,47.6C80,56.3,84.7,64,92.9,64c8.3,0,13-7.6,13-16.8c0-8-4.2-16.4-12.9-16.4
		C84.3,30.8,80,38.8,80,47.6z"/>
	<path class="st1" d="M148.9,65.8c-2.3,0.8-7,2.2-12.4,2.2c-6.1,0-11.2-1.6-15.1-5.3c-3.5-3.4-5.6-8.8-5.6-15.1
		c0.1-12.1,8.3-20.9,21.9-20.9c4.7,0,8.3,1,10.1,1.9l-1.3,4.3c-2.2-1-4.9-1.7-8.9-1.7c-9.8,0-16.3,6.1-16.3,16.3
		c0,10.3,6.2,16.3,15.6,16.3c3.4,0,5.8-0.5,7-1.1V50.6h-8.2v-4.2h13.3V65.8z"/>
	<path class="st1" d="M191.5,47c0,13.9-8.5,21.3-18.8,21.3c-10.7,0-18.2-8.3-18.2-20.5c0-12.8,8-21.2,18.8-21.2
		C184.3,26.5,191.5,35,191.5,47z M160.1,47.6c0,8.6,4.7,16.4,12.9,16.4c8.3,0,13-7.6,13-16.8c0-8-4.2-16.4-12.9-16.4
		C164.4,30.8,160.1,38.8,160.1,47.6z"/>
</g>
</svg>
